<?xml version="1.0" encoding="UTF-8"?>
<svg width="16px" height="19px" viewBox="0 0 16 19" version="1.1" xmlns="http://www.w3.org/2000/svg" xmlns:xlink="http://www.w3.org/1999/xlink">
    <!-- Generator: Sketch 42 (36781) - http://www.bohemiancoding.com/sketch -->
    <title>Group</title>
    <desc>Created with Sketch.</desc>
    <defs>
        <rect id="path-1" x="0" y="0" width="24" height="24"></rect>
    </defs>
    <g id="Icons" stroke="none" stroke-width="1" fill="none" fill-rule="evenodd">
        <g id="24-px-Icons" transform="translate(-244.000000, -363.000000)">
            <g id="Group" transform="translate(240.000000, 360.000000)">
                <mask id="mask-2" fill="white">
                    <use xlink:href="#path-1"></use>
                </mask>
                <g id="Rectangle"></g>
                <path d="M4,3 L20,3 L20,21.3458834 L4,21.3458834 L4,3 Z M6,4.74722699 L6,19.5986564 L18,19.5986564 L18,4.74722699 L6,4.74722699 Z M7.75,8.60000002 C7.33578644,8.60000002 7,8.24182782 7,7.80000001 C7,7.35817221 7.33578644,7 7.75,7 L10.25,7 C10.6642136,7 11,7.35817221 11,7.80000001 C11,8.24182782 10.6642136,8.60000002 10.25,8.60000002 L7.75,8.60000002 Z M12.6818182,8.60000002 C12.3052604,8.60000002 12,8.24182782 12,7.80000001 C12,7.35817221 12.3052604,7 12.6818182,7 L16.3181818,7 C16.6947396,7 17,7.35817221 17,7.80000001 C17,8.24182782 16.6947396,8.60000002 16.3181818,8.60000002 L12.6818182,8.60000002 Z M7.64285714,11.6 C7.28781695,11.6 7,11.2418278 7,10.8 C7,10.3581722 7.28781695,10 7.64285714,10 L12.3571429,10 C12.7121831,10 13,10.3581722 13,10.8 C13,11.2418278 12.7121831,11.6 12.3571429,11.6 L7.64285714,11.6 Z M16.1,10 C16.5970563,10 17,10.3581722 17,10.8 C17,11.2418278 16.5970563,11.6 16.1,11.6 L14.9,11.6 C14.4029437,11.6 14,11.2418278 14,10.8 C14,10.3581722 14.4029437,10 14.9,10 L16.1,10 Z M7.9,14.6 C7.40294373,14.6 7,14.2418278 7,13.8 C7,13.3581722 7.40294373,13 7.9,13 L9.1,13 C9.59705627,13 10,13.3581722 10,13.8 C10,14.2418278 9.59705627,14.6 9.1,14.6 L7.9,14.6 Z M11.6428571,14.6 C11.2878169,14.6 11,14.2418278 11,13.8 C11,13.3581722 11.2878169,13 11.6428571,13 L16.3571429,13 C16.7121831,13 17,13.3581722 17,13.8 C17,14.2418278 16.7121831,14.6 16.3571429,14.6 L11.6428571,14.6 Z M7.71428571,17.6 C7.31979661,17.6 7,17.2418278 7,16.8 C7,16.3581722 7.31979661,16 7.71428571,16 L16.2857143,16 C16.6802034,16 17,16.3581722 17,16.8 C17,17.2418278 16.6802034,17.6 16.2857143,17.6 L7.71428571,17.6 Z" id="Notes" fill="#2F2F2F" mask="url(#mask-2)"></path>
            </g>
        </g>
    </g>
</svg>