<?xml version="1.0" encoding="UTF-8"?>
<svg width="21px" height="19px" viewBox="0 0 21 19" version="1.1" xmlns="http://www.w3.org/2000/svg" xmlns:xlink="http://www.w3.org/1999/xlink">
    <!-- Generator: Sketch 41.2 (35397) - http://www.bohemiancoding.com/sketch -->
    <title>Archive Icon</title>
    <desc>Created with Sketch.</desc>
    <defs></defs>
    <g id="Page-1" stroke="none" stroke-width="1" fill="none" fill-rule="evenodd">
        <g id="iPhone-6" transform="translate(-218.000000, -633.000000)" fill="#4F4F4F">
            <g id="Group" transform="translate(0.000000, 618.000000)">
                <path d="M218.883368,19.75 L238.114397,19.75 L238.114397,32.0035941 C238.114397,33.1061786 237.212638,34 236.110763,34 L220.887002,34 C219.780426,34 218.883368,33.1085987 218.883368,32.0035941 L218.883368,19.75 Z M225.002332,23.075 C225.002332,22.5503295 225.41884,22.125 225.945453,22.125 L231.052312,22.125 C231.573184,22.125 231.995433,22.5466716 231.995433,23.075 C231.995433,23.5996705 231.578925,24.025 231.052312,24.025 L225.945453,24.025 C225.424581,24.025 225.002332,23.6033284 225.002332,23.075 Z M218.765432,15.900547 C219.004616,15.4031886 219.640007,15 220.19867,15 L236.800961,15 C237.353333,15 237.996688,15.4066666 238.2342,15.900547 L238.805728,17.0889796 C239.260174,18.0339501 238.783232,18.8 237.730911,18.8 L219.26872,18.8 C218.22067,18.8 217.74087,18.0310133 218.193903,17.0889796 L218.765432,15.900547 Z" id="Archive-Icon"></path>
            </g>
        </g>
    </g>
</svg>