<?xml version="1.0" encoding="UTF-8"?>
<svg width="780px" height="175px" viewBox="0 0 780 175" version="1.1" xmlns="http://www.w3.org/2000/svg" xmlns:xlink="http://www.w3.org/1999/xlink">
    <!-- Generator: Sketch 42 (36781) - http://www.bohemiancoding.com/sketch -->
    <title>Group</title>
    <desc>Created with Sketch.</desc>
    <defs></defs>
    <g id="Triforce" stroke="none" stroke-width="1" fill="none" fill-rule="evenodd">
        <g id="Desktop" transform="translate(-139.000000, -512.000000)" fill="#000000">
            <g id="Group" transform="translate(139.000000, 512.000000)">
                <g id="Group-3">
                    <path d="M21,154 L759,154 L759,21 L21,21 L21,154 Z M0,0 L780,0 L780,175 L0,175 L0,0 Z" id="Rectangle" fill-rule="nonzero"></path>
                    <path d="M114.841123,82.6062348 L102.267051,82.6062348 L100.75438,94.4239723 L113.233911,94.4239723 L111.626699,107.470755 L99.1471679,107.470755 L97.4454137,121.273872 L83.7368382,121.273872 L85.4385924,107.470755 L74.0935644,107.470755 L72.3918102,121.273872 L58.7777766,121.273872 L60.4795308,107.470755 L48,107.470755 L49.6072123,94.4239723 L62.0867431,94.4239723 L63.5994135,82.6062348 L51.2144246,82.6062348 L52.6325531,69.5594526 L65.2066258,69.5594526 L67.0029219,55 L80.6169555,55 L78.8206594,69.5594526 L90.1656874,69.5594526 L91.9619835,55 L105.670559,55 L103.874263,69.5594526 L116.353794,69.5594526 L114.841123,82.6062348 Z M87.0458047,94.4239723 L88.5584751,82.6062348 L77.2134471,82.6062348 L75.7007767,94.4239723 L87.0458047,94.4239723 Z M138.01632,118.923065 C137.546318,118.453063 137.31132,117.904735 137.31132,117.278065 L137.31132,56.2720649 C137.31132,55.5827281 137.530651,55.0030673 137.96932,54.5330649 C138.407989,54.0630626 138.971983,53.8280649 139.66132,53.8280649 L150.28332,53.8280649 C151.72466,53.8280649 152.789983,54.4233923 153.47932,55.6140649 L175.66332,90.6760649 L175.66332,56.2720649 C175.66332,55.5827281 175.882651,55.0030673 176.32132,54.5330649 C176.759989,54.0630626 177.323983,53.8280649 178.01332,53.8280649 L189.95132,53.8280649 C190.640657,53.8280649 191.204651,54.0630626 191.64332,54.5330649 C192.081989,55.0030673 192.30132,55.5827281 192.30132,56.2720649 L192.30132,117.184065 C192.30132,117.873402 192.081989,118.453063 191.64332,118.923065 C191.204651,119.393067 190.640657,119.628065 189.95132,119.628065 L179.32932,119.628065 C177.887979,119.628065 176.822657,119.032738 176.13332,117.842065 L154.04332,84.1900649 L154.04332,117.278065 C154.04332,117.967402 153.808322,118.531396 153.33832,118.970065 C152.868318,119.408734 152.288657,119.628065 151.59932,119.628065 L139.66132,119.628065 C139.03465,119.628065 138.486322,119.393067 138.01632,118.923065 Z M204.886474,118.923065 C204.416471,118.453063 204.181474,117.904735 204.181474,117.278065 L204.181474,56.2720649 C204.181474,55.5827281 204.400805,55.0030673 204.839474,54.5330649 C205.278143,54.0630626 205.842137,53.8280649 206.531474,53.8280649 L250.899474,53.8280649 C251.588811,53.8280649 252.168471,54.0630626 252.638474,54.5330649 C253.108476,55.0030673 253.343474,55.5827281 253.343474,56.2720649 L253.343474,65.5780649 C253.343474,66.2674017 253.108476,66.831396 252.638474,67.2700649 C252.168471,67.7087338 251.588811,67.9280649 250.899474,67.9280649 L221.195474,67.9280649 L221.195474,79.8660649 L248.831474,79.8660649 C249.520811,79.8660649 250.100471,80.1010626 250.570474,80.5710649 C251.040476,81.0410673 251.275474,81.6207281 251.275474,82.3100649 L251.275474,90.8640649 C251.275474,91.5534017 251.040476,92.1330626 250.570474,92.6030649 C250.100471,93.0730673 249.520811,93.3080649 248.831474,93.3080649 L221.195474,93.3080649 L221.195474,105.528065 L251.651474,105.528065 C252.340811,105.528065 252.920471,105.763063 253.390474,106.233065 C253.860476,106.703067 254.095474,107.282728 254.095474,107.972065 L254.095474,117.278065 C254.095474,117.967402 253.860476,118.531396 253.390474,118.970065 C252.920471,119.408734 252.340811,119.628065 251.651474,119.628065 L206.531474,119.628065 C205.904804,119.628065 205.356476,119.393067 204.886474,118.923065 Z M271.568628,118.735065 C270.910624,118.139729 270.518962,117.403403 270.393628,116.526065 L260.335628,56.3660649 C260.272961,56.2407309 260.241628,56.0527328 260.241628,55.8020649 C260.241628,55.3007291 260.445292,54.8464003 260.852628,54.4390649 C261.259963,54.0317295 261.714292,53.8280649 262.215628,53.8280649 L274.529628,53.8280649 C276.34697,53.8280649 277.349627,54.5487244 277.537628,55.9900649 L283.271628,91.5220649 L289.757628,70.9360649 C290.258963,69.2440564 291.292953,68.3980649 292.859628,68.3980649 L299.909628,68.3980649 C301.476302,68.3980649 302.510292,69.2440564 303.011628,70.9360649 L309.497628,91.4280649 L315.325628,55.9900649 C315.450962,55.2380611 315.732959,54.6897333 316.171628,54.3450649 C316.610296,54.0003965 317.299623,53.8280649 318.239628,53.8280649 L330.553628,53.8280649 C331.11763,53.8280649 331.587626,54.0317295 331.963628,54.4390649 C332.339629,54.8464003 332.527628,55.3007291 332.527628,55.8020649 L332.527628,56.3660649 L322.469628,116.526065 C322.344294,117.403403 321.936964,118.139729 321.247628,118.735065 C320.558291,119.330401 319.712299,119.628065 318.709628,119.628065 L309.215628,119.628065 C308.212956,119.628065 307.42963,119.377401 306.865628,118.876065 C306.301625,118.374729 305.925629,117.810735 305.737628,117.184065 L296.431628,91.1460649 L287.125628,117.184065 C286.87496,117.810735 286.46763,118.374729 285.903628,118.876065 C285.339625,119.377401 284.556299,119.628065 283.553628,119.628065 L274.153628,119.628065 C273.088289,119.628065 272.226631,119.330401 271.568628,118.735065 Z M350.047781,117.936065 C345.786427,116.181389 342.559126,113.862746 340.365781,110.980065 C338.172437,108.097384 337.013115,104.964082 336.887781,101.580065 C336.887781,101.016062 337.091446,100.546067 337.498781,100.170065 C337.906117,99.794063 338.391779,99.6060649 338.955781,99.6060649 L351.457781,99.6060649 C352.209785,99.6060649 352.820779,99.731397 353.290781,99.9820649 C353.760784,100.232733 354.277779,100.671395 354.841781,101.298065 C355.656452,102.802072 356.92544,104.039727 358.648781,105.011065 C360.372123,105.982403 362.6751,106.468065 365.557781,106.468065 C368.941798,106.468065 371.542439,105.95107 373.359781,104.917065 C375.177124,103.88306 376.085781,102.457407 376.085781,100.640065 C376.085781,99.3240583 375.615786,98.2430691 374.675781,97.3970649 C373.735777,96.5510607 372.231792,95.7990682 370.163781,95.1410649 C368.095771,94.4830616 365.119134,93.7467356 361.233781,92.9320649 C353.651077,91.4280574 347.9798,89.1407469 344.219781,86.0700649 C340.459763,82.9993829 338.579781,78.6127601 338.579781,72.9100649 C338.579781,69.0247121 339.660771,65.5624134 341.822781,62.5230649 C343.984792,59.4837164 347.055428,57.1180734 351.034781,55.4260649 C355.014135,53.7340564 359.635755,52.8880649 364.899781,52.8880649 C370.414476,52.8880649 375.192761,53.843722 379.234781,55.7550649 C383.276802,57.6664078 386.378771,60.0477173 388.540781,62.8990649 C390.702792,65.7504125 391.846447,68.5547178 391.971781,71.3120649 C391.971781,71.8760677 391.783783,72.3617295 391.407781,72.7690649 C391.03178,73.1764003 390.561784,73.3800649 389.997781,73.3800649 L376.837781,73.3800649 C375.459108,73.3800649 374.393785,72.8160705 373.641781,71.6880649 C373.26578,70.3720583 372.294456,69.2597361 370.727781,68.3510649 C369.161107,67.4423937 367.21846,66.9880649 364.899781,66.9880649 C362.267768,66.9880649 360.231122,67.4580602 358.789781,68.3980649 C357.348441,69.3380696 356.627781,70.7167225 356.627781,72.5340649 C356.627781,74.3514073 357.567772,75.7770597 359.447781,76.8110649 C361.327791,77.8450701 364.837089,78.8947262 369.975781,79.9600649 C375.866478,81.0254036 380.550764,82.3570569 384.028781,83.9550649 C387.506799,85.5530729 390.076106,87.6210522 391.736781,90.1590649 C393.397456,92.6970776 394.227781,95.9087121 394.227781,99.7940649 C394.227781,104.05542 393.005794,107.752716 390.561781,110.886065 C388.117769,114.019414 384.733803,116.41639 380.409781,118.077065 C376.08576,119.73774 371.135143,120.568065 365.557781,120.568065 C359.479084,120.568065 354.309136,119.69074 350.047781,117.936065 Z M403.052935,118.923065 C402.582933,118.453063 402.347935,117.904735 402.347935,117.278065 L402.347935,56.2720649 C402.347935,55.5827281 402.567266,55.0030673 403.005935,54.5330649 C403.444604,54.0630626 404.008599,53.8280649 404.697935,53.8280649 L430.547935,53.8280649 C438.819977,53.8280649 445.290245,55.7080461 449.958935,59.4680649 C454.627625,63.2280837 456.961935,68.5233641 456.961935,75.3540649 C456.961935,79.7407535 455.943612,83.4693829 453.906935,86.5400649 C451.870258,89.6107469 449.065953,91.9920564 445.493935,93.6840649 L458.183935,116.620065 C458.371936,116.996067 458.465935,117.34073 458.465935,117.654065 C458.465935,118.155401 458.277937,118.60973 457.901935,119.017065 C457.525933,119.4244 457.055938,119.628065 456.491935,119.628065 L443.237935,119.628065 C441.420593,119.628065 440.135939,118.782073 439.383935,117.090065 L429.043935,96.6920649 L420.019935,96.6920649 L420.019935,117.278065 C420.019935,117.967402 419.784938,118.531396 419.314935,118.970065 C418.844933,119.408734 418.265272,119.628065 417.575935,119.628065 L404.697935,119.628065 C404.071266,119.628065 403.522938,119.393067 403.052935,118.923065 Z M430.453935,82.8740649 C433.148615,82.8740649 435.200928,82.200405 436.610935,80.8530649 C438.020942,79.5057248 438.725935,77.6414101 438.725935,75.2600649 C438.725935,72.8787197 438.020942,70.9674054 436.610935,69.5260649 C435.200928,68.0847244 433.148615,67.3640649 430.453935,67.3640649 L420.019935,67.3640649 L420.019935,82.8740649 L430.453935,82.8740649 Z M472.696089,114.082065 C467.557397,109.758043 464.831424,103.39744 464.518089,95.0000649 C464.455422,93.2453895 464.424089,90.5507497 464.424089,86.9160649 C464.424089,83.2813801 464.455422,80.5554073 464.518089,78.7380649 C464.768757,70.4660235 467.510396,64.089754 472.743089,59.6090649 C477.975782,55.1283758 484.978712,52.8880649 493.752089,52.8880649 C502.462799,52.8880649 509.434396,55.1283758 514.667089,59.6090649 C519.899782,64.089754 522.641421,70.4660235 522.892089,78.7380649 C523.017423,82.3727497 523.080089,85.0987225 523.080089,86.9160649 C523.080089,88.7960743 523.017423,91.490714 522.892089,95.0000649 C522.578754,103.39744 519.868448,109.758043 514.761089,114.082065 C509.65373,118.406087 502.6508,120.568065 493.752089,120.568065 C484.853378,120.568065 477.834782,118.406087 472.696089,114.082065 Z M501.554089,103.507065 C503.496766,101.533055 504.530755,98.5094186 504.656089,94.4360649 C504.781423,90.8013801 504.844089,88.2007394 504.844089,86.6340649 C504.844089,85.0673904 504.781423,82.5294158 504.656089,79.0200649 C504.530755,74.9467112 503.496766,71.9230748 501.554089,69.9490649 C499.611413,67.975055 497.010772,66.9880649 493.752089,66.9880649 C490.430739,66.9880649 487.798766,67.975055 485.856089,69.9490649 C483.913413,71.9230748 482.879423,74.9467112 482.754089,79.0200649 C482.691422,80.7747403 482.660089,83.312715 482.660089,86.6340649 C482.660089,90.0180818 482.691422,92.6187225 482.754089,94.4360649 C482.879423,98.5094186 483.913413,101.533055 485.856089,103.507065 C487.798766,105.481075 490.430739,106.468065 493.752089,106.468065 C497.010772,106.468065 499.611413,105.481075 501.554089,103.507065 Z M539.002243,114.082065 C533.863551,109.758043 531.137578,103.39744 530.824243,95.0000649 C530.761576,93.2453895 530.730243,90.5507497 530.730243,86.9160649 C530.730243,83.2813801 530.761576,80.5554073 530.824243,78.7380649 C531.074911,70.4660235 533.81655,64.089754 539.049243,59.6090649 C544.281936,55.1283758 551.284866,52.8880649 560.058243,52.8880649 C568.768953,52.8880649 575.74055,55.1283758 580.973243,59.6090649 C586.205936,64.089754 588.947575,70.4660235 589.198243,78.7380649 C589.323577,82.3727497 589.386243,85.0987225 589.386243,86.9160649 C589.386243,88.7960743 589.323577,91.490714 589.198243,95.0000649 C588.884908,103.39744 586.174602,109.758043 581.067243,114.082065 C575.959884,118.406087 568.956954,120.568065 560.058243,120.568065 C551.159532,120.568065 544.140935,118.406087 539.002243,114.082065 Z M567.860243,103.507065 C569.802919,101.533055 570.836909,98.5094186 570.962243,94.4360649 C571.087577,90.8013801 571.150243,88.2007394 571.150243,86.6340649 C571.150243,85.0673904 571.087577,82.5294158 570.962243,79.0200649 C570.836909,74.9467112 569.802919,71.9230748 567.860243,69.9490649 C565.917567,67.975055 563.316926,66.9880649 560.058243,66.9880649 C556.736893,66.9880649 554.104919,67.975055 552.162243,69.9490649 C550.219567,71.9230748 549.185577,74.9467112 549.060243,79.0200649 C548.997576,80.7747403 548.966243,83.312715 548.966243,86.6340649 C548.966243,90.0180818 548.997576,92.6187225 549.060243,94.4360649 C549.185577,98.5094186 550.219567,101.533055 552.162243,103.507065 C554.104919,105.481075 556.736893,106.468065 560.058243,106.468065 C563.316926,106.468065 565.917567,105.481075 567.860243,103.507065 Z M599.809397,118.970065 C599.339395,118.531396 599.104397,117.967402 599.104397,117.278065 L599.104397,56.2720649 C599.104397,55.5827281 599.339395,55.0030673 599.809397,54.5330649 C600.279399,54.0630626 600.85906,53.8280649 601.548397,53.8280649 L612.170397,53.8280649 C613.737071,53.8280649 614.86506,54.5173913 615.554397,55.8960649 L631.722397,84.8480649 L647.984397,55.8960649 C648.673734,54.5173913 649.801722,53.8280649 651.368397,53.8280649 L661.990397,53.8280649 C662.679734,53.8280649 663.259395,54.0630626 663.729397,54.5330649 C664.199399,55.0030673 664.434397,55.5827281 664.434397,56.2720649 L664.434397,117.278065 C664.434397,117.967402 664.199399,118.531396 663.729397,118.970065 C663.259395,119.408734 662.679734,119.628065 661.990397,119.628065 L650.052397,119.628065 C649.425727,119.628065 648.877399,119.393067 648.407397,118.923065 C647.937395,118.453063 647.702397,117.904735 647.702397,117.278065 L647.702397,83.0620649 L637.550397,101.674065 C636.735726,103.115405 635.63907,103.836065 634.260397,103.836065 L629.184397,103.836065 C627.931057,103.836065 626.834402,103.115405 625.894397,101.674065 L615.836397,83.0620649 L615.836397,117.278065 C615.836397,117.967402 615.601399,118.531396 615.131397,118.970065 C614.661395,119.408734 614.081734,119.628065 613.392397,119.628065 L601.548397,119.628065 C600.85906,119.628065 600.279399,119.408734 599.809397,118.970065 Z M685.714551,117.936065 C681.453196,116.181389 678.225895,113.862746 676.032551,110.980065 C673.839206,108.097384 672.679885,104.964082 672.554551,101.580065 C672.554551,101.016062 672.758215,100.546067 673.165551,100.170065 C673.572886,99.794063 674.058548,99.6060649 674.622551,99.6060649 L687.124551,99.6060649 C687.876554,99.6060649 688.487548,99.731397 688.957551,99.9820649 C689.427553,100.232733 689.944548,100.671395 690.508551,101.298065 C691.323221,102.802072 692.592209,104.039727 694.315551,105.011065 C696.038893,105.982403 698.34187,106.468065 701.224551,106.468065 C704.608568,106.468065 707.209208,105.95107 709.026551,104.917065 C710.843893,103.88306 711.752551,102.457407 711.752551,100.640065 C711.752551,99.3240583 711.282555,98.2430691 710.342551,97.3970649 C709.402546,96.5510607 707.898561,95.7990682 705.830551,95.1410649 C703.76254,94.4830616 700.785903,93.7467356 696.900551,92.9320649 C689.317846,91.4280574 683.64657,89.1407469 679.886551,86.0700649 C676.126532,82.9993829 674.246551,78.6127601 674.246551,72.9100649 C674.246551,69.0247121 675.32754,65.5624134 677.489551,62.5230649 C679.651562,59.4837164 682.722198,57.1180734 686.701551,55.4260649 C690.680904,53.7340564 695.302524,52.8880649 700.566551,52.8880649 C706.081245,52.8880649 710.859531,53.843722 714.901551,55.7550649 C718.943571,57.6664078 722.04554,60.0477173 724.207551,62.8990649 C726.369562,65.7504125 727.513217,68.5547178 727.638551,71.3120649 C727.638551,71.8760677 727.450553,72.3617295 727.074551,72.7690649 C726.698549,73.1764003 726.228554,73.3800649 725.664551,73.3800649 L712.504551,73.3800649 C711.125877,73.3800649 710.060554,72.8160705 709.308551,71.6880649 C708.932549,70.3720583 707.961225,69.2597361 706.394551,68.3510649 C704.827876,67.4423937 702.885229,66.9880649 700.566551,66.9880649 C697.934538,66.9880649 695.897891,67.4580602 694.456551,68.3980649 C693.01521,69.3380696 692.294551,70.7167225 692.294551,72.5340649 C692.294551,74.3514073 693.234541,75.7770597 695.114551,76.8110649 C696.99456,77.8450701 700.503858,78.8947262 705.642551,79.9600649 C711.533247,81.0254036 716.217533,82.3570569 719.695551,83.9550649 C723.173568,85.5530729 725.742876,87.6210522 727.403551,90.1590649 C729.064226,92.6970776 729.894551,95.9087121 729.894551,99.7940649 C729.894551,104.05542 728.672563,107.752716 726.228551,110.886065 C723.784539,114.019414 720.400572,116.41639 716.076551,118.077065 C711.752529,119.73774 706.801912,120.568065 701.224551,120.568065 C695.145854,120.568065 689.975905,119.69074 685.714551,117.936065 Z" id="Combined-Shape" stroke="#000000"></path>
                </g>
            </g>
        </g>
    </g>
</svg>