<?xml version="1.0" encoding="UTF-8"?>
<svg width="18px" height="15px" viewBox="0 0 18 15" version="1.1" xmlns="http://www.w3.org/2000/svg" xmlns:xlink="http://www.w3.org/1999/xlink">
    <!-- Generator: Sketch 42 (36781) - http://www.bohemiancoding.com/sketch -->
    <title>Chat</title>
    <desc>Created with Sketch.</desc>
    <defs></defs>
    <g id="Page-1" stroke="none" stroke-width="1" fill="none" fill-rule="evenodd">
        <g id="iPhone-6-Copy" transform="translate(-228.000000, -79.000000)" fill-rule="nonzero" fill="#5B6C72">
            <path d="M230.78409,86.1913488 C230.78409,83.5767754 233.550216,81.3896063 237.026355,81.3896063 C240.502495,81.3896063 243.26862,83.5767754 243.26862,86.1913488 C243.26862,88.8059222 240.502495,90.9930913 237.026355,90.9930913 C236.005236,90.9930913 235.020989,90.8034496 234.137051,90.4460322 L233.774428,90.2994067 L233.478464,90.5551402 C233.198823,90.7967686 232.632327,91.1371247 232.520388,91.1162789 C232.678938,90.8891669 232.805454,90.4975088 232.856558,90.1986475 L232.921541,89.8186217 L232.616045,89.5834303 C231.444172,88.6812405 230.78409,87.4704755 230.78409,86.1913488 Z M230.501364,90.8126223 C230.384781,91.4944133 230.096322,92.1382879 229.665305,92.6793932 C229.665305,92.6793932 229.217417,93.2573462 229.356375,93.5531915 C229.495332,93.8490368 230.249154,93.922427 230.249154,93.922427 C230.886031,93.9351261 231.522803,93.8303226 232.133123,93.6081842 C232.734357,93.3893529 233.282105,93.0667808 233.756971,92.6564637 L233.256183,92.0768935 L232.969054,92.7869977 C234.209906,93.2887323 235.582459,93.5531915 237,93.5531915 C241.936309,93.5531915 246,90.3400401 246,86.2765957 C246,82.2131514 241.936309,79 237,79 C232.063691,79 228,82.2131514 228,86.2765957 C228,88.3078394 229.027404,90.1923707 230.789107,91.5486522 L230.501364,90.8126223 Z" id="Chat"></path>
        </g>
    </g>
</svg>