<?xml version="1.0" encoding="UTF-8"?>
<svg width="68px" height="44px" viewBox="0 0 68 44" version="1.1" xmlns="http://www.w3.org/2000/svg" xmlns:xlink="http://www.w3.org/1999/xlink">
    <!-- Generator: Sketch 42 (36781) - http://www.bohemiancoding.com/sketch -->
    <title>Group</title>
    <desc>Created with Sketch.</desc>
    <defs></defs>
    <g id="Triforce" stroke="none" stroke-width="1" fill="none" fill-rule="evenodd">
        <g id="iPhone-7" transform="translate(-37.000000, -124.000000)" fill="#000000">
            <g id="Group" transform="translate(37.185534, 124.371935)">
                <path d="M5.95555556,36.7407403 L61.0444444,36.7407403 L61.0444444,6.13487112 L5.95555556,6.13487112 L5.95555556,36.7407403 Z M0,0 L67,0 L67,42.8756114 L0,42.8756114 L0,0 Z" id="Rectangle" fill-rule="nonzero"></path>
                <path d="M33.9263356,19.8076242 L30.2135545,19.8076242 L29.7669041,23.2970801 L33.4517696,23.2970801 L32.9772036,27.1494394 L29.2923381,27.1494394 L28.7898565,31.2251239 L24.7420876,31.2251239 L25.2445693,27.1494394 L21.8946916,27.1494394 L21.3922099,31.2251239 L17.3723567,31.2251239 L17.8748384,27.1494394 L14.1899729,27.1494394 L14.6645389,23.2970801 L18.3494044,23.2970801 L18.7960547,19.8076242 L15.1391049,19.8076242 L15.5578396,15.9552648 L19.2706207,15.9552648 L19.801018,11.6562551 L23.8208712,11.6562551 L23.2904739,15.9552648 L26.6403516,15.9552648 L27.1707489,11.6562551 L31.2185178,11.6562551 L30.6881205,15.9552648 L34.3729859,15.9552648 L33.9263356,19.8076242 Z M25.7191353,23.2970801 L26.1657856,19.8076242 L22.8159079,19.8076242 L22.3692576,23.2970801 L25.7191353,23.2970801 Z" id="Combined-Shape" stroke="#000000"></path>
            </g>
        </g>
    </g>
</svg>