<?xml version="1.0" encoding="UTF-8"?>
<svg width="16px" height="21px" viewBox="0 0 16 21" version="1.1" xmlns="http://www.w3.org/2000/svg" xmlns:xlink="http://www.w3.org/1999/xlink">
    <!-- Generator: Sketch 42 (36781) - http://www.bohemiancoding.com/sketch -->
    <title>Group 2</title>
    <desc>Created with Sketch.</desc>
    <defs></defs>
    <g id="Icons" stroke="none" stroke-width="1" fill="none" fill-rule="evenodd">
        <g id="24-px-Icons" transform="translate(-203.000000, -366.000000)">
            <g id="Group-2" transform="translate(199.000000, 364.000000)">
                <rect id="Rectangle-2" x="0" y="0" width="24" height="24"></rect>
                <path d="M15.9597048,19.1570964 C16.9880936,18.1198654 17.6233206,16.692204 17.6233206,15.1161775 C17.6233206,11.9992926 17.2409693,10.5637733 15.9445664,8.13285754 C15.2351857,10.052605 13.7571983,11.3756959 11.791429,11.8282825 C9.96658837,12.2484226 8.11564913,11.8402163 6.79600356,10.7572824 C6.14432445,12.1590597 6.14432445,13.0527876 6.14432445,15.1161775 C6.14432445,16.7152388 6.79825576,18.1615664 7.85328347,19.2023251 C8.64840744,19.530586 10.2312114,20.0173827 11.7517654,19.5043921 C13.8999935,18.7796425 15.1469863,16.2119767 14.6954266,13.0922214 C16.0842736,14.9679495 16.4636014,17.2346762 15.9597048,19.1570964 Z M11.8838225,23 C7.52970757,23 4,19.4702924 4,15.1161775 C4,13.3878164 4,9.29562644 7.07848809,6.28444591 C6.89039218,9.29562644 9.53853392,10.1465518 11.3103195,9.73862679 C13.0821051,9.33070176 15.4596132,7.12298554 13.6243612,2 C19.7676451,7.12298565 19.767645,13.3753777 19.767645,15.1161775 C19.767645,19.4702924 16.2379375,23 11.8838225,23 Z" id="Flame" fill="#5B6C72"></path>
            </g>
        </g>
    </g>
</svg>